<svg width="186" height="79" viewBox="0 0 186 79" fill="none" xmlns="http://www.w3.org/2000/svg">
<g clip-path="url(#clip0_110_106)">
<mask id="mask0_110_106" style="mask-type:luminance" maskUnits="userSpaceOnUse" x="0" y="0" width="186" height="79">
<path d="M185.527 0H0V78.885H185.527V0Z" fill="white"/>
</mask>
<g mask="url(#mask0_110_106)">
<path d="M104.215 30L97.766 48.059H101.377L102.756 44.034H110.49L111.877 48.059H115.488L109.039 30H104.215ZM103.765 41.093L106.356 33.534H106.872L109.472 41.093H103.765Z" fill="white"/>
<path d="M129.018 37.869H128.502L124.22 30.001H120.53L127.108 41.842V48.059H130.437V41.841L137.015 30H133.325L129.018 37.869Z" fill="white"/>
<path d="M154.403 41.531C155.284 41.5362 156.147 41.2846 156.887 40.807C157.655 40.3111 158.279 39.6212 158.696 38.807C159.155 37.9208 159.386 36.9347 159.37 35.937C159.388 34.9003 159.147 33.8754 158.67 32.955C158.228 32.1059 157.558 31.3968 156.736 30.907C155.894 30.4113 154.931 30.1567 153.954 30.171H145.943V47.641H149.162V41.58H150.11L155.826 47.645H159.819L153.95 41.531H154.403ZM149.162 38.661V33.195H153.803C154.222 33.1917 154.634 33.3083 154.989 33.531C155.357 33.7684 155.655 34.1007 155.85 34.493C156.063 34.9367 156.174 35.4227 156.174 35.915C156.174 36.4074 156.063 36.8934 155.85 37.337C155.653 37.7313 155.356 38.0672 154.989 38.311C154.637 38.542 154.224 38.6635 153.803 38.66L149.162 38.661Z" fill="white"/>
<path d="M178.615 30.174H173.948L167.709 47.645H171.203L172.537 43.751H180.015L181.357 47.645H184.851L178.615 30.174ZM173.515 40.906L176.022 33.593H176.522L179.042 40.906H173.515Z" fill="white"/>
<path d="M39.442 0V78.885L19.721 59.163L39.442 0Z" fill="#A6B8D8"/>
<path d="M0 39.442L39.442 0L19.721 59.163L0 39.442Z" fill="white"/>
<path d="M39.442 0V78.885L59.163 59.163L39.442 0Z" fill="white"/>
<path d="M78.884 39.442L39.443 0L59.163 59.163L78.884 39.442Z" fill="#A6B8D8"/>
</g>
</g>
<defs>
<clipPath id="clip0_110_106">
<rect width="185.527" height="78.885" fill="white"/>
</clipPath>
</defs>
</svg>
